<svg width="27" height="30" viewBox="0 0 27 30" fill="none" xmlns="http://www.w3.org/2000/svg">
<g clip-path="url(#clip0)">
<path d="M13.0366 8.29427C9.3368 8.29427 6.3525 11.2895 6.3525 15.003C6.3525 18.7164 9.3368 21.7117 13.0366 21.7117C16.7364 21.7117 19.7207 18.7164 19.7207 15.003C19.7207 11.2895 16.7364 8.29427 13.0366 8.29427ZM13.0366 19.3645C10.6457 19.3645 8.69107 17.4085 8.69107 15.003C8.69107 12.5974 10.6399 10.6414 13.0366 10.6414C15.4334 10.6414 17.3822 12.5974 17.3822 15.003C17.3822 17.4085 15.4275 19.3645 13.0366 19.3645ZM21.5532 8.01985C21.5532 8.88982 20.8551 9.58463 19.9942 9.58463C19.1274 9.58463 18.4351 8.88399 18.4351 8.01985C18.4351 7.15572 19.1332 6.45508 19.9942 6.45508C20.8551 6.45508 21.5532 7.15572 21.5532 8.01985ZM25.9802 9.60799C25.8813 7.51189 25.4043 5.65517 23.8743 4.12542C22.3502 2.59568 20.5003 2.1169 18.4118 2.01181C16.2594 1.88919 9.808 1.88919 7.65559 2.01181C5.57298 2.11106 3.72306 2.58984 2.1931 4.11959C0.663145 5.64933 0.191941 7.50605 0.0872285 9.60215C-0.0349356 11.7625 -0.0349356 18.2376 0.0872285 20.398C0.186123 22.4941 0.663145 24.3508 2.1931 25.8805C3.72306 27.4103 5.56716 27.889 7.65559 27.9941C9.808 28.1167 16.2594 28.1167 18.4118 27.9941C20.5003 27.8949 22.3502 27.4161 23.8743 25.8805C25.3985 24.3508 25.8755 22.4941 25.9802 20.398C26.1024 18.2376 26.1024 11.7683 25.9802 9.60799ZM23.1995 22.7159C22.7458 23.8603 21.8673 24.742 20.7213 25.2032C19.0052 25.8864 14.9331 25.7287 13.0366 25.7287C11.1402 25.7287 7.06222 25.8805 5.35192 25.2032C4.21172 24.7478 3.3333 23.8662 2.87373 22.7159C2.1931 20.9935 2.35017 16.9064 2.35017 15.003C2.35017 13.0995 2.19892 9.0066 2.87373 7.29001C3.32749 6.14562 4.2059 5.26398 5.35192 4.80272C7.06803 4.11959 11.1402 4.27723 13.0366 4.27723C14.9331 4.27723 19.011 4.12542 20.7213 4.80272C21.8615 5.25814 22.7399 6.13978 23.1995 7.29001C23.8801 9.01244 23.7231 13.0995 23.7231 15.003C23.7231 16.9064 23.8801 20.9993 23.1995 22.7159Z" fill="black"/>
</g>
<defs>
<clipPath id="clip0">
<rect width="26.0617" height="29.8943" fill="white" transform="translate(0 0.061676)"/>
</clipPath>
</defs>
</svg>
