<svg width="25" height="28" viewBox="0 0 25 28" fill="none" xmlns="http://www.w3.org/2000/svg">
<path d="M5.59598 24.5007H0.412946V8.14367H5.59598V24.5007ZM3.00167 5.91242C1.34431 5.91242 0 4.56711 0 2.94289C1.18627e-08 2.16272 0.316247 1.4145 0.87917 0.862838C1.44209 0.311173 2.20558 0.00125122 3.00167 0.00125122C3.79777 0.00125122 4.56125 0.311173 5.12418 0.862838C5.6871 1.4145 6.00335 2.16272 6.00335 2.94289C6.00335 4.56711 4.65848 5.91242 3.00167 5.91242ZM24.9944 24.5007H19.8225V16.5382C19.8225 14.6405 19.7835 12.207 17.1278 12.207C14.433 12.207 14.0201 14.2687 14.0201 16.4015V24.5007H8.84263V8.14367H13.8136V10.3749H13.8862C14.5781 9.08977 16.2684 7.73352 18.7902 7.73352C24.0357 7.73352 25 11.1187 25 15.5155V24.5007H24.9944Z" fill="black"/>
</svg>
