<svg id="visual" viewBox="0 0 900 600" width="900" height="600" xmlns="http://www.w3.org/2000/svg" xmlns:xlink="http://www.w3.org/1999/xlink" version="1.1"><rect x="0" y="0" width="900" height="600" fill="#002233"></rect><path d="M0 408L21.5 408.2C43 408.3 86 408.7 128.8 413.5C171.7 418.3 214.3 427.7 257.2 427C300 426.3 343 415.7 385.8 429.8C428.7 444 471.3 483 514.2 502C557 521 600 520 642.8 517.5C685.7 515 728.3 511 771.2 489.3C814 467.7 857 428.3 878.5 408.7L900 389L900 601L878.5 601C857 601 814 601 771.2 601C728.3 601 685.7 601 642.8 601C600 601 557 601 514.2 601C471.3 601 428.7 601 385.8 601C343 601 300 601 257.2 601C214.3 601 171.7 601 128.8 601C86 601 43 601 21.5 601L0 601Z" fill="#0066FF" stroke-linecap="round" stroke-linejoin="miter"></path></svg>