<svg id="visual" viewBox="0 0 1920 1080" width="1920" height="1080" xmlns="http://www.w3.org/2000/svg" xmlns:xlink="http://www.w3.org/1999/xlink" version="1.1"><path d="M0 88L45.7 95C91.3 102 182.7 116 274.2 123.5C365.7 131 457.3 132 548.8 126.8C640.3 121.7 731.7 110.3 823 107.7C914.3 105 1005.7 111 1097 124.7C1188.3 138.3 1279.7 159.7 1371.2 157.3C1462.7 155 1554.3 129 1645.8 118.5C1737.3 108 1828.7 113 1874.3 115.5L1920 118L1920 0L1874.3 0C1828.7 0 1737.3 0 1645.8 0C1554.3 0 1462.7 0 1371.2 0C1279.7 0 1188.3 0 1097 0C1005.7 0 914.3 0 823 0C731.7 0 640.3 0 548.8 0C457.3 0 365.7 0 274.2 0C182.7 0 91.3 0 45.7 0L0 0Z" fill="#ffffff" stroke-linecap="round" stroke-linejoin="miter"></path></svg>